<svg width="24" height="24" viewBox="0 0 24 24" fill="none" xmlns="http://www.w3.org/2000/svg">
<g id="computer">
<mask id="mask0_1372_10" style="mask-type:alpha" maskUnits="userSpaceOnUse" x="0" y="0" width="24" height="24">
<rect id="Bounding box" width="24" height="24" fill="#D9D9D9"/>
</mask>
<g mask="url(#mask0_1372_10)">
<path id="computer_2" d="M1.99988 21C1.71654 21 1.47904 20.9042 1.28738 20.7125C1.09571 20.5208 0.999878 20.2833 0.999878 20C0.999878 19.7167 1.09571 19.4792 1.28738 19.2875C1.47904 19.0958 1.71654 19 1.99988 19H21.9999C22.2832 19 22.5207 19.0958 22.7124 19.2875C22.904 19.4792 22.9999 19.7167 22.9999 20C22.9999 20.2833 22.904 20.5208 22.7124 20.7125C22.5207 20.9042 22.2832 21 21.9999 21H1.99988ZM3.99988 18C3.44988 18 2.97904 17.8042 2.58738 17.4125C2.19571 17.0208 1.99988 16.55 1.99988 16V5C1.99988 4.45 2.19571 3.97917 2.58738 3.5875C2.97904 3.19583 3.44988 3 3.99988 3H19.9999C20.5499 3 21.0207 3.19583 21.4124 3.5875C21.804 3.97917 21.9999 4.45 21.9999 5V16C21.9999 16.55 21.804 17.0208 21.4124 17.4125C21.0207 17.8042 20.5499 18 19.9999 18H3.99988ZM3.99988 16H19.9999V5H3.99988V16Z" fill="#D9D9D9"/>
</g>
</g>
</svg>
