<svg width="26" height="21" viewBox="0 0 26 21" fill="none" xmlns="http://www.w3.org/2000/svg">
<g id="Group 1000004223">
<path id="Vector" fill-rule="evenodd" clip-rule="evenodd" d="M0.000915512 0.992188H26.0009C26.0009 2 26.0009 1.83082 26.0009 2.85721C26.0009 3.8836 26.0009 3.5 26.0009 4H0.000164121C-0.000464544 3 0.000915512 3.8836 0.000915512 2.85721C0.000915512 1.83082 0.000915512 1.99219 0.000915512 0.992188Z" fill="#DDEEDD" fill-opacity="0.929412"/>
<path id="Vector_2" fill-rule="evenodd" clip-rule="evenodd" d="M0.000915512 9H26.0009C26.0009 10.0078 26.0009 9.83863 26.0009 10.865C26.0009 11.8914 26.0009 11.5078 26.0009 12.0078H0.000164121C-0.000464544 11.0078 0.000915512 11.8914 0.000915512 10.865C0.000915512 9.83863 0.000915512 10 0.000915512 9Z" fill="#DDEEDD" fill-opacity="0.929412"/>
<path id="Vector_3" fill-rule="evenodd" clip-rule="evenodd" d="M0.000915512 17.0078H26.0009C26.0009 18.0156 26.0009 17.8464 26.0009 18.8728C26.0009 19.8992 26.0009 19.5156 26.0009 20.0156H0.000164121C-0.000464544 19.0156 0.000915512 19.8992 0.000915512 18.8728C0.000915512 17.8464 0.000915512 18.0078 0.000915512 17.0078Z" fill="#DDEEDD" fill-opacity="0.929412"/>
</g>
</svg>
