<svg width="23" height="23" viewBox="0 0 23 23" fill="none" xmlns="http://www.w3.org/2000/svg">
<g id="icon_line/file-text_down">
<path id="Vector (Stroke)" fill-rule="evenodd" clip-rule="evenodd" d="M11.077 9.23077C11.5868 9.23077 12 9.64405 12 10.1539L12 13.4638L13.1935 12.2704C13.554 11.9099 14.1384 11.9099 14.4989 12.2704C14.8594 12.6309 14.8594 13.2153 14.4989 13.5758L11.7297 16.345C11.3692 16.7055 10.7847 16.7055 10.4242 16.345L7.65501 13.5758C7.29452 13.2153 7.29452 12.6309 7.65501 12.2704C8.01549 11.9099 8.59995 11.9099 8.96043 12.2704L10.1539 13.4638V10.1539C10.1539 9.64405 10.5671 9.23077 11.077 9.23077Z" fill="#D9D9D9"/>
<path id="Rectangle 14 (Stroke)" fill-rule="evenodd" clip-rule="evenodd" d="M7.38457 3.69231C6.36497 3.69231 5.53841 4.51887 5.53841 5.53847V16.6154C5.53841 17.635 6.36497 18.4615 7.38457 18.4615H14.7692C15.7888 18.4615 16.6153 17.635 16.6153 16.6154V8.14932C16.6153 7.90451 16.5181 7.66972 16.345 7.49661L12.811 3.96268C12.6379 3.78957 12.4031 3.69231 12.1583 3.69231H7.38457ZM3.69226 5.53847C3.69226 3.49926 5.34536 1.84616 7.38457 1.84616H12.1583C12.8928 1.84616 13.5971 2.13792 14.1165 2.65725L17.6504 6.19118C18.1697 6.71052 18.4615 7.41488 18.4615 8.14932V16.6154C18.4615 18.6546 16.8084 20.3077 14.7692 20.3077H7.38457C5.34536 20.3077 3.69226 18.6546 3.69226 16.6154V5.53847Z" fill="#D9D9D9"/>
<path id="Rectangle 15 (Stroke)" fill-rule="evenodd" clip-rule="evenodd" d="M12.9231 2.76923V4.61538C12.9231 6.14478 14.1629 7.38461 15.6923 7.38461H17.5384V9.23076H15.6923C13.1433 9.23076 11.0769 7.16439 11.0769 4.61538V2.76923H12.9231Z" fill="#D9D9D9"/>
</g>
</svg>
